<svg width="146" height="30" viewBox="0 0 146 30" fill="none" xmlns="http://www.w3.org/2000/svg">
<g clip-path="url(#clip0_11_232)">
<path d="M70.0018 15.1527H55.3358V13.6813H70.0018V15.1527ZM62.4722 11.0998C61.9244 11.6926 61.1446 12.159 60.1329 12.5055C59.1195 12.8504 57.9203 13.0671 56.5334 13.1558L55.979 11.6762C57.1635 11.6171 58.1752 11.466 59.011 11.2213C59.8467 10.9766 60.4784 10.6679 60.9045 10.2901C61.3305 9.91243 61.5427 9.49367 61.5427 9.03713V8.74318H63.2948V9.03713C63.2948 9.82211 63.02 10.5102 62.4722 11.1014V11.0998ZM68.5722 9.5183H56.7638V8.02881H68.5722V9.5183ZM68.1971 20.1007H59.0159V21.8037H57.0516V18.7541H66.2329V17.7639H57.0418V16.3286H68.1971V20.1007ZM68.6347 22.6954H57.0516V21.2158H68.6347V22.6954ZM63.6238 8.63643H61.6678V6.68384H63.6238V8.63643ZM63.6337 17.2121H61.6776V14.8407H63.6337V17.2121ZM64.397 10.2901C64.8231 10.6679 65.4548 10.9782 66.2954 11.2213C67.1344 11.4643 68.1461 11.6171 69.3323 11.6762L68.7515 13.1558C67.3762 13.0671 66.1836 12.8504 65.1751 12.5055C64.165 12.1606 63.3853 11.6926 62.8341 11.0998C62.283 10.5086 62.0083 9.82047 62.0083 9.03549V8.74153H63.7587V9.03549C63.7587 9.49367 63.9725 9.91079 64.397 10.2885V10.2901Z" fill="#8F959F"/>
<path d="M75.5458 12.4923C75.1937 13.3807 74.6739 14.1542 73.9862 14.8111C73.2986 15.468 72.4662 15.9623 71.489 16.2957L70.4805 14.7175C71.3195 14.4383 72.0384 14.0393 72.6372 13.5187C73.2344 12.9981 73.6885 12.4036 73.9944 11.7352C74.3004 11.0668 74.4534 10.3656 74.4534 9.63484V8.4935H76.0705V9.63484C76.0705 10.6514 75.8962 11.6039 75.5441 12.4923H75.5458ZM79.8065 9.43777H71.0448V7.84154H79.8065V9.43777ZM81.0338 17.0429C81.8465 17.281 82.4683 17.6291 82.901 18.089C83.3336 18.5504 83.5491 19.0989 83.5491 19.7345C83.5491 20.37 83.3336 20.9201 82.901 21.3833C82.4683 21.848 81.8465 22.2011 81.0338 22.4458C80.2211 22.6888 79.2587 22.812 78.145 22.812C77.0313 22.812 76.0557 22.6905 75.2332 22.4458C74.4107 22.2011 73.7789 21.848 73.3348 21.3833C72.8906 20.9201 72.6685 20.37 72.6685 19.7345C72.6685 19.0989 72.8889 18.5504 73.3298 18.089C73.7707 17.6291 74.4024 17.2794 75.2283 17.0429C76.0525 16.8048 77.0247 16.6865 78.1434 16.6865C79.262 16.6865 80.2211 16.8048 81.0321 17.0429H81.0338ZM76.2647 18.4026C75.7432 18.5127 75.3484 18.6802 75.0769 18.9051C74.8055 19.1301 74.6706 19.4077 74.6706 19.7345C74.6706 20.0613 74.8071 20.3322 75.0769 20.5638C75.3484 20.7953 75.7432 20.9694 76.2597 21.086C76.7779 21.201 77.4064 21.2601 78.1434 21.2601C78.8804 21.2601 79.5187 21.2026 80.0319 21.086C80.5468 20.9694 80.9351 20.7953 81.1967 20.5638C81.4582 20.3322 81.5898 20.0563 81.5898 19.7345C81.5898 19.4126 81.4599 19.1301 81.1967 18.9051C80.9334 18.6802 80.5452 18.5127 80.027 18.4026C79.5088 18.2926 78.8804 18.2368 78.1417 18.2368C77.4031 18.2368 76.7829 18.2926 76.2614 18.4026H76.2647ZM76.8865 11.5283C77.1728 12.1326 77.6005 12.6664 78.168 13.1344C78.7372 13.6008 79.4298 13.9621 80.2458 14.2166L79.3081 15.7767C78.3556 15.4729 77.5446 15.018 76.875 14.412C76.2054 13.8061 75.6971 13.0933 75.3533 12.2722C75.0078 11.4528 74.8334 10.5693 74.8334 9.62498V8.49186H76.4588V9.62498C76.4588 10.2901 76.6019 10.9256 76.8882 11.5283H76.8865ZM83.3961 16.3302H81.4138V6.71826H83.3961V16.3302ZM85.6565 12.2115H82.8335V10.5791H85.6565V12.2115Z" fill="#8F959F"/>
<path d="M86.6107 12.916L86.3063 11.3378L92.5758 11.0882V12.4151L86.609 12.916H86.6107ZM93.7471 11.9651C93.2519 13.1278 92.4639 14.1444 91.3798 15.0147C90.2957 15.8851 88.8727 16.6093 87.1108 17.1857L86.3343 15.6256C87.8412 15.1494 89.0405 14.5746 89.9338 13.8997C90.827 13.2264 91.4653 12.466 91.8503 11.6219C92.2352 10.7778 92.4261 9.82534 92.4261 8.76775V7.97456H94.489C94.489 9.47226 94.2423 10.8025 93.7487 11.9635L93.7471 11.9651ZM93.6665 9.58065H87.119V7.97456H93.6665V9.58065ZM91.0672 21.912H89.0569V17.4813H91.0672V21.912ZM99.9622 22.5361H89.0569V20.9136H99.9622V22.5361ZM97.8121 13.3167H94.4084V11.6843H97.8121V13.3167ZM99.5345 18.6473H97.5522V6.73633H99.5345V18.649V18.6473Z" fill="#8F959F"/>
<path d="M106.549 14.3907C106.182 15.5829 105.648 16.6307 104.945 17.5339C104.243 18.4371 103.397 19.1236 102.408 19.5932L101.194 17.9346C102.07 17.547 102.83 16.9788 103.473 16.2283C104.116 15.4762 104.608 14.6108 104.95 13.6336C105.292 12.6549 105.463 11.64 105.463 10.589V8.01233H107.099V10.589C107.099 11.9323 106.916 13.2001 106.549 14.3923V14.3907ZM107.964 13.4858C108.298 14.4186 108.782 15.2512 109.417 15.982C110.05 16.7128 110.793 17.2629 111.644 17.6324L110.464 19.2205C109.512 18.7738 108.684 18.1169 107.982 17.2449C107.28 16.3729 106.743 15.3678 106.373 14.2265C106.005 13.0835 105.82 11.8715 105.82 10.5873V8.01069H107.464V10.5873C107.464 11.5858 107.63 12.5531 107.964 13.4858ZM114.796 22.8645H112.787V6.71826H114.796V22.8645Z" fill="#8F959F"/>
<path d="M123.258 8.59531C123.88 9.0617 124.369 9.72516 124.723 10.5824C125.076 11.4413 125.254 12.4414 125.254 13.5827C125.254 14.7241 125.076 15.7324 124.723 16.5913C124.367 17.4501 123.88 18.1136 123.258 18.5833C122.635 19.0529 121.926 19.2878 121.128 19.2878C120.33 19.2878 119.61 19.0546 118.984 18.5882C118.359 18.1218 117.871 17.4584 117.515 16.5962C117.16 15.734 116.984 14.729 116.984 13.5827C116.984 12.4365 117.162 11.4413 117.515 10.5824C117.871 9.72352 118.359 9.06006 118.984 8.59531C119.61 8.12728 120.324 7.89573 121.128 7.89573C121.932 7.89573 122.635 8.12893 123.258 8.59531ZM119.953 10.1423C119.611 10.4576 119.348 10.9076 119.162 11.4922C118.978 12.0785 118.886 12.7748 118.886 13.5844C118.886 14.394 118.978 15.0919 119.162 15.6831C119.346 16.276 119.611 16.7243 119.953 17.0297C120.296 17.3352 120.687 17.4879 121.128 17.4879C121.569 17.4879 121.96 17.3352 122.303 17.0297C122.645 16.7243 122.908 16.276 123.094 15.6831C123.278 15.0919 123.37 14.3923 123.37 13.5844C123.37 12.7764 123.278 12.0702 123.094 11.484C122.91 10.8993 122.648 10.4494 122.312 10.1374C121.975 9.82533 121.58 9.67261 121.13 9.67918C120.689 9.67425 120.297 9.82698 119.955 10.1439L119.953 10.1423ZM129.14 14.2527H124.647V12.6467H129.14V14.2527ZM130.247 22.8645H128.282V6.71826H130.247V22.8645Z" fill="#8F959F"/>
<path d="M137.189 14.7914C136.811 15.918 136.273 16.9197 135.577 17.7967C134.879 18.6736 134.068 19.3305 133.139 19.7706L131.986 18.2105C132.813 17.8229 133.543 17.2629 134.174 16.5256C134.804 15.7882 135.291 14.9638 135.629 14.0508C135.968 13.1377 136.139 12.2164 136.139 11.2836V9.16188H137.757V11.2836C137.757 12.4956 137.567 13.6648 137.189 14.7914ZM141.695 9.937H132.593V8.3145H141.695V9.937ZM138.663 13.9227C139 14.7848 139.481 15.56 140.109 16.2448C140.737 16.9312 141.471 17.4534 142.31 17.8098L141.229 19.3699C140.277 18.9478 139.449 18.3254 138.747 17.506C138.044 16.6865 137.508 15.739 137.138 14.6666C136.768 13.5942 136.585 12.466 136.585 11.2836V9.16188H138.158V11.2836C138.158 12.1803 138.326 13.0605 138.661 13.9227H138.663ZM145.5 22.8202H143.491V6.71826H145.5V22.8202Z" fill="#8F959F"/>
<path d="M18.9974 10.768H26.0154L18.7095 21.8694V22.922H32.6912V19.1761H25.1994L32.3951 8.07805V7.02539H18.9974V10.768Z" fill="#1A32F6"/>
<path d="M15.5641 8.71031C14.1016 7.16992 12.343 6.8037 10.8427 6.83819C10.824 6.83819 10.8175 6.83819 10.8229 6.83819C9.63848 6.84311 8.60208 7.26188 7.81079 7.7644V11.2557C7.82724 11.2443 7.84369 11.2295 7.86014 11.218C8.40796 10.8271 9.07751 10.548 9.80793 10.5512C10.892 10.5562 11.7656 10.8748 12.4763 11.6679C13.1804 12.4562 13.59 13.6107 13.59 15.0213C13.59 16.432 13.1804 17.5865 12.4763 18.3748C11.7656 19.1679 10.8904 19.4865 9.80793 19.4915C9.07915 19.4947 8.40796 19.2156 7.86014 18.8247C7.16427 18.3271 6.35324 17.4091 6.27921 15.629C6.27921 15.629 6.27921 15.3761 6.27921 15.0263V0H2.13029V17.3615C2.13029 18.227 2.17799 18.8953 2.00855 19.2024C1.74204 19.6885 0.5 19.4964 0.5 19.4964V22.8925C0.5 22.8925 5.26254 23.6216 6.27921 20.8693V20.797C6.63455 21.4736 8.48198 23.216 10.8509 23.216C12.3529 23.216 14.1 22.8761 15.5641 21.3357C17.0496 19.7723 17.7603 17.5569 17.7603 15.023C17.7603 12.4891 17.0496 10.2737 15.5641 8.71031Z" fill="#1A32F6"/>
<path d="M49.1091 21.2913C47.6467 22.8317 45.8881 23.1979 44.3877 23.1634C44.3691 23.1634 44.3625 23.1634 44.368 23.1634C43.1835 23.1585 42.1471 22.7397 41.3558 22.2372V18.7458C41.3723 18.7573 41.3887 18.7721 41.4052 18.7836C41.953 19.1745 42.6225 19.4536 43.353 19.4504C44.4371 19.4454 45.3106 19.1268 46.0213 18.3337C46.7254 17.5454 47.135 16.3909 47.135 14.9802C47.135 13.5696 46.7254 12.4151 46.0213 11.6268C45.3106 10.8337 44.4354 10.5151 43.353 10.5101C42.6242 10.5069 41.953 10.786 41.4052 11.1769C40.7093 11.6745 39.8983 12.5925 39.8242 14.3726C39.8242 14.3726 39.8242 14.6255 39.8242 14.9753V30.0032H35.6753V12.6417C35.6753 11.7763 35.723 11.1079 35.5536 10.8008C35.2871 10.3147 34.045 10.5069 34.045 10.5069V7.11075C34.045 7.11075 38.8076 6.3816 39.8242 9.13396V9.20622C40.1796 8.52962 42.027 6.78723 44.396 6.78723C45.8979 6.78723 47.645 7.12717 49.1091 8.66757C50.5947 10.231 51.3053 12.4463 51.3053 14.9802C51.3053 17.5142 50.5947 19.7295 49.1091 21.2929" fill="#1A32F6"/>
</g>
<defs>
<clipPath id="clip0_11_232">
<rect width="145" height="30" fill="white" transform="translate(0.5)"/>
</clipPath>
</defs>
</svg>
