<svg width="16" height="17" viewBox="0 0 16 17" fill="none" xmlns="http://www.w3.org/2000/svg">
<mask id="mask0_187_605" style="mask-type:luminance" maskUnits="userSpaceOnUse" x="1" y="2" width="13" height="13">
<path d="M14 2.5H1V14.5H14V2.5Z" fill="white"/>
</mask>
<g mask="url(#mask0_187_605)">
<path fill-rule="evenodd" clip-rule="evenodd" d="M12.6427 3.32106C12.5346 3.2057 12.4022 3.11571 12.2551 3.05755C12.108 2.99938 11.9499 2.97448 11.7921 2.98463C11.6342 2.99478 11.4806 3.03972 11.3422 3.11624C11.2038 3.19277 11.084 3.29897 10.9915 3.42723L9.14611 5.91224L2.00066 5.80252L1.26818 6.53842L7.34798 8.33112L4.87474 11.664L4.84972 11.6976L2.54542 11.951L1.866 13.0081L5.15272 13.5944C5.36925 13.6379 5.59396 13.6132 5.7958 13.5235C5.99765 13.4338 6.16666 13.2837 6.27947 13.0938L12.7359 5.20267C12.9443 4.92822 13.0491 4.58903 13.0319 4.24487C13.0147 3.90071 12.8765 3.57368 12.6418 3.3214" fill="#B9BEC6"/>
</g>
</svg>
