<svg width="16" height="16" viewBox="0 0 16 16" fill="none" xmlns="http://www.w3.org/2000/svg">
<path fill-rule="evenodd" clip-rule="evenodd" d="M8.00012 1.0001C8.66857 0.995872 9.33104 1.12612 9.94812 1.3831C10.5384 1.62724 11.0772 1.98078 11.5361 2.4251C11.9877 2.86513 12.3509 3.38753 12.6061 3.9641C12.8702 4.55898 13.0045 5.20327 13.0001 5.8541C12.9691 6.88711 12.7001 7.89903 12.2141 8.8111C11.7125 9.83175 11.137 10.8144 10.4921 11.7511C10.0975 12.3171 9.62512 12.9394 9.07512 13.6181C8.94373 13.7758 8.77929 13.9026 8.59343 13.9897C8.40758 14.0767 8.20485 14.1218 7.99962 14.1218C7.79439 14.1218 7.59167 14.0767 7.40581 13.9897C7.21996 13.9026 7.05551 13.7758 6.92412 13.6181C6.37079 12.9381 5.89879 12.3158 5.50812 11.7511C4.86314 10.8144 4.2876 9.83181 3.78612 8.8111C3.29996 7.8991 3.03097 6.88714 3.00012 5.8541C2.99536 5.20334 3.12933 4.55903 3.39312 3.9641C3.64833 3.38753 4.01153 2.86513 4.46312 2.4251C4.9223 1.98062 5.46145 1.62706 6.05212 1.3831C6.66919 1.12604 7.33167 0.99579 8.00012 1.0001ZM9.65612 7.1761C9.92849 6.86458 10.0945 6.47437 10.1301 6.0621C10.1594 5.71798 10.1039 5.37194 9.96867 5.05417C9.83341 4.7364 9.62242 4.45657 9.35412 4.2391C9.0295 3.97236 8.63095 3.81147 8.21212 3.7781C7.86276 3.74791 7.51121 3.80065 7.18608 3.93202C6.86095 4.06339 6.57145 4.26969 6.34112 4.5341C6.06931 4.84549 5.90365 5.2353 5.86812 5.6471C5.83893 5.99098 5.89429 6.33677 6.02937 6.65434C6.16445 6.97192 6.37516 7.25163 6.64312 7.4691C6.96795 7.73615 7.36692 7.89706 7.78612 7.9301C8.13524 7.96025 8.48655 7.90759 8.81148 7.7764C9.13641 7.64521 9.4258 7.4402 9.65612 7.1761Z" fill="#B9BEC6"/>
</svg>
