<svg width="24" height="24" viewBox="0 0 24 24" fill="none" xmlns="http://www.w3.org/2000/svg">
<path d="M4 4.5H20C20.2761 4.5 20.5 4.72386 20.5 5C20.5 5.27614 20.2761 5.5 20 5.5H4C3.72386 5.5 3.5 5.27614 3.5 5C3.5 4.72386 3.72386 4.5 4 4.5Z" stroke="#111111"/>
<path d="M4 11.5H20C20.2761 11.5 20.5 11.7239 20.5 12C20.5 12.2761 20.2761 12.5 20 12.5H4C3.72386 12.5 3.5 12.2761 3.5 12C3.5 11.7239 3.72386 11.5 4 11.5Z" stroke="#111111"/>
<path d="M4 18.5H20C20.2761 18.5 20.5 18.7239 20.5 19C20.5 19.2761 20.2761 19.5 20 19.5H4C3.72386 19.5 3.5 19.2761 3.5 19C3.5 18.7239 3.72386 18.5 4 18.5Z" stroke="#111111"/>
</svg>
